#!OML:ASF X:\für Bonn\!DataBase\2005_08_12_Daniel\c3d\Daniel.ASF
:FULLY-SPECIFIED
:DEGREES
1
root -4.24645 17.2447 -1.02709 301.678 -88.9702 -309.583
lowerback 17.3113 -2.20715 2.28453
upperback -0.316276 -2.75234 -2.28662
thorax -10.3216 -1.52114 -3.0788
lowerneck 3.71325 2.76702 -2.42389
upperneck 2.62081 3.55464 0.436785
head 0.13923 1.73753 0.491073
rclavicle -2.26677e-014 -4.77083e-015
rhumerus 71.8382 -29.0321 -169.555
rradius 8.86015
rwrist 137.265
rhand -21.5072 12.5686
rfingers 7.12502
rthumb 4.88464 -17.3551
lclavicle -2.26677e-014 -4.77083e-015
lhumerus 58.3103 14.1327 113.771
lradius 8.63771
lwrist -89.324
lhand -14.9431 3.67152
lfingers 7.12502
lthumb 11.2196 33.3515
rfemur 7.89991 25.6531 23.1954
rtibia 20.3348
rfoot 322.092 -28.565
rtoes -9.10325
lfemur -183.061 202.546 -201.089
ltibia 33.785
lfoot -30.8557 16.311
ltoes -1.21687
2
root -4.24147 17.2465 -1.0248 299.831 -88.9789 -307.777
lowerback 17.3609 -2.19901 2.26385
upperback -0.271393 -2.74673 -2.29483
thorax -10.2988 -1.5173 -3.07661
lowerneck 3.68489 2.73458 -2.4577
upperneck 2.5756 3.51154 0.459155
head 0.129633 1.71645 0.50398
rclavicle -1.69899e-014 -1.59028e-014
rhumerus 71.6445 -28.9958 -169.338
rradius 8.96438
rwrist 137.252
rhand -21.4674 12.61
rfingers 7.12502
rthumb 4.92307 -17.3128
lclavicle -1.69899e-014 -1.59028e-014
lhumerus 58.2527 14.1828 113.822
lradius 8.61206
lwrist -89.6574
lhand -14.7913 3.66436
lfingers 7.12502
lthumb 11.3661 33.3363
rfemur 7.70235 24.9608 22.9034
rtibia 20.4593
rfoot 322.73 -28.0949
rtoes -9.24191
lfemur -183.105 201.969 -200.949
ltibia 33.7469
lfoot -30.5337 15.8724
ltoes -1.2207
3
root -4.23695 17.2481 -1.0216 298.363 -88.9965 -306.346
lowerback 17.4103 -2.19001 2.26849
upperback -0.235311 -2.73526 -2.30777
thorax -10.2868 -1.51234 -3.09559
lowerneck 3.6754 2.69648 -2.45009
upperneck 2.53712 3.46191 0.450297
head 0.120489 1.6923 0.5004
rclavicle 1.32565e-014 9.54166e-015
rhumerus 71.4776 -28.9827 -169.132
rradius 9.05852
rwrist 137.178
rhand -21.4689 12.713
rfingers 7.12502
rthumb 4.9216 -17.2098
lclavicle 1.32565e-014 9.54166e-015
lhumerus 58.1774 14.2325 113.858
lradius 8.57462
lwrist -89.9291
lhand -14.6636 3.60533
lfingers 7.12502
lthumb 11.4892 33.2705
rfemur 7.50032 24.197 22.6015
rtibia 20.5684
rfoot 323.444 -27.6084
rtoes -9.33664
lfemur -183.168 201.353 -200.79
ltibia 33.7397
lfoot -30.2179 15.3863
ltoes -1.21201
4
root -4.23113 17.2474 -1.01913 296.552 -89.0199 -304.592
lowerback 17.5087 -2.17547 2.25908
upperback -0.201619 -2.71766 -2.31054
thorax -10.3034 -1.5037 -3.09592
lowerneck 3.67064 2.65713 -2.42004
upperneck 2.51294 3.41131 0.409169
head 0.115947 1.66762 0.483337
rclavicle 1.6524e-015 -2.0276e-014
rhumerus 71.3059 -28.9861 -168.905
rradius 9.14321
rwrist 137.077
rhand -21.5376 12.786
rfingers 7.12502
rthumb 4.85531 -17.1383
lclavicle 1.6524e-015 -2.0276e-014
lhumerus 58.1598 14.2561 113.926
lradius 8.4995
lwrist -90.18
lhand -14.4939 3.60013
lfingers 7.12502
lthumb 11.6529 33.2561
rfemur 7.29958 23.3518 22.2845
rtibia 20.6776
rfoot 324.213 -27.0339
rtoes -9.50907
lfemur -183.232 200.69 -200.618
ltibia 33.7585
lfoot -29.8901 14.8651
ltoes -1.15433
5
root -4.226 17.2457 -1.01621 295.485 -89.0363 -303.603
lowerback 17.627 -2.17083 2.26331
upperback -0.165893 -2.71109 -2.32058
thorax -10.331 -1.5014 -3.1087
lowerneck 3.67896 2.62447 -2.44041
upperneck 2.47792 3.36691 0.440024
head 0.10362 1.64571 0.496224
rclavicle 1.11816e-015 4.37326e-015
rhumerus 71.1139 -28.9918 -168.691
rradius 9.24249
rwrist 136.855
rhand -21.5431 12.8933
rfingers 7.12502
rthumb 4.84997 -17.0312
lclavicle 1.11816e-015 4.37326e-015
lhumerus 58.1186 14.2794 113.982
lradius 8.47093
lwrist -90.3414
lhand -14.3244 3.53736
lfingers 7.12502
lthumb 11.8163 33.184
rfemur 7.14439 22.531 21.9952
rtibia 20.7777
rfoot 324.901 -26.4812
rtoes -9.67106
lfemur -183.295 200.004 -200.445
ltibia 33.8099
lfoot -29.562 14.3071
ltoes -1.08152
6
root -4.22072 17.2416 -1.01358 293.899 -89.0553 -302.13
lowerback 17.7997 -2.16799 2.25859
upperback -0.129362 -2.70764 -2.32466
thorax -10.388 -1.50024 -3.10784
lowerneck 3.69209 2.59633 -2.44255
upperneck 2.44171 3.3293 0.423848
head 0.0912878 1.62732 0.491601
rclavicle 7.92033e-015 7.15625e-015
rhumerus 70.9298 -29.0108 -168.46
rradius 9.29306
rwrist 136.546
rhand -21.5639 12.9683
rfingers 7.12502
rthumb 4.82982 -16.9567
lclavicle 7.92033e-015 7.15625e-015
lhumerus 58.0969 14.3368 114.032
lradius 8.43887
lwrist -90.4734
lhand -14.2359 3.46584
lfingers 7.12502
lthumb 11.9017 33.1076
rfemur 7.01354 21.6163 21.6869
rtibia 20.8789
rfoot 325.653 -25.8331
rtoes -9.76382
lfemur -183.328 199.272 -200.276
ltibia 33.8847
lfoot -29.2503 13.7095
ltoes -1.04001
7
root -4.21559 17.2368 -1.01009 291.989 -89.0784 -300.343
lowerback 17.9953 -2.16161 2.26602
upperback -0.0994008 -2.69737 -2.33465
thorax -10.4657 -1.49699 -3.1218
lowerneck 3.7313 2.56867 -2.42859
upperneck 2.40606 3.29184 0.434909
head 0.0746439 1.60903 0.492326
rclavicle -1.19954e-014 -1.63003e-014
rhumerus 70.7513 -29.0597 -168.233
rradius 9.33166
rwrist 136.148
rhand -21.5743 13.0542
rfingers 7.12502
rthumb 4.81982 -16.871
lclavicle -1.19954e-014 -1.63003e-014
lhumerus 58.0642 14.3701 114.085
lradius 8.40833
lwrist -90.547
lhand -14.1529 3.3612
lfingers 7.12502
lthumb 11.9816 32.9983
rfemur 6.8932 20.6794 21.3761
rtibia 20.983
rfoot 326.417 -25.1694
rtoes -9.96882
lfemur -183.35 198.59 -200.126
ltibia 33.9833
lfoot -28.9774 13.1669
ltoes -1.07801
8
root -4.21091 17.2316 -1.00769 290.632 -89.1145 -299.112
lowerback 18.1892 -2.15292 2.2753
upperback -0.0627421 -2.68245 -2.33367
thorax -10.5339 -1.49112 -3.12618
lowerneck 3.77298 2.53409 -2.39147
upperneck 2.34559 3.24644 0.411319
head 0.0512128 1.58731 0.478558
rclavicle 5.19573e-014 3.61788e-014
rhumerus 70.6026 -29.0749 -168.01
rradius 9.3556
rwrist 135.751
rhand -21.5491 13.1476
rfingers 7.12502
rthumb 4.84417 -16.777
lclavicle 5.19573e-014 3.61788e-014
lhumerus 58.0564 14.3992 114.147
lradius 8.36513
lwrist -90.5605
lhand -14.1809 3.30199
lfingers 7.12502
lthumb 11.9547 32.9406
rfemur 6.78416 19.7945 21.1108
rtibia 21.1031
rfoot 327.096 -24.517
rtoes -10.0361
lfemur -183.394 197.825 -199.926
ltibia 34.101
lfoot -28.6695 12.5213
ltoes -0.998439
9
root -4.20714 17.2255 -1.0046 287.76 -89.1237 -296.373
lowerback 18.3831 -2.1415 2.26128
upperback -0.020716 -2.66976 -2.33854
thorax -10.5953 -1.48525 -3.12317
lowerneck 3.81544 2.50623 -2.4061
upperneck 2.29455 3.20767 0.418998
head 0.0289402 1.56829 0.482871
rclavicle -1.4064e-014 -1.31198e-014
rhumerus 70.4467 -29.0797 -167.775
rradius 9.37116
rwrist 135.384
rhand -21.4857 13.1781
rfingers 7.12502
rthumb 4.90533 -16.7451
lclavicle -1.4064e-014 -1.31198e-014
lhumerus 58.0829 14.4254 114.225
lradius 8.31467
lwrist -90.5757
lhand -14.2186 3.21288
lfingers 7.12502
lthumb 11.9183 32.8536
rfemur 6.67768 18.8789 20.7966
rtibia 21.236
rfoot 327.758 -23.795
rtoes -10.172
lfemur -183.426 197.111 -199.784
ltibia 34.2405
lfoot -28.397 11.9303
ltoes -0.948485
10
root -4.20381 17.2176 -1.00176 285.995 -89.1457 -294.759
lowerback 18.6056 -2.13606 2.2661
upperback 0.0179741 -2.66106 -2.34656
thorax -10.6779 -1.48266 -3.13278
lowerneck 3.84885 2.47802 -2.34307
upperneck 2.25634 3.17192 0.390872
head 0.0139744 1.55134 0.463672
rclavicle -2.83144e-014 -1.86858e-014
rhumerus 70.3125 -29.0925 -167.562
rradius 9.36127
rwrist 135.019
rhand -21.4327 13.1509
rfingers 7.12502
rthumb 4.95652 -16.7712
lclavicle -2.83144e-014 -1.86858e-014
lhumerus 58.0941 14.4479 114.284
lradius 8.30055
lwrist -90.5626
lhand -14.2423 3.09796
lfingers 7.12502
lthumb 11.8955 32.74
rfemur 6.59907 18.0349 20.5415
rtibia 21.3876
rfoot 328.337 -23.1333
rtoes -10.377
lfemur -183.455 196.347 -199.606
ltibia 34.4031
lfoot -28.1278 11.2689
ltoes -0.868274
11
root -4.20084 17.2089 -0.998733 283.872 -89.1798 -292.791
lowerback 18.8369 -2.1337 2.26685
upperback 0.0537848 -2.65476 -2.33402
thorax -10.7675 -1.48029 -3.11658
lowerneck 3.89379 2.46816 -2.3443
upperneck 2.23205 3.15731 0.400274
head -0.000716511 1.54413 0.466205
rclavicle 4.28008e-015 2.8625e-014
rhumerus 70.1501 -29.0981 -167.316
rradius 9.37216
rwrist 134.742
rhand -21.3707 13.1575
rfingers 7.12502
rthumb 5.01646 -16.7631
lclavicle 4.28008e-015 2.8625e-014
lhumerus 58.1378 14.4892 114.371
lradius 8.26025
lwrist -90.5505
lhand -14.325 3.02067
lfingers 7.12502
lthumb 11.8157 32.6673
rfemur 6.51153 17.1559 20.2858
rtibia 21.5706
rfoot 328.926 -22.4154
rtoes -10.5535
lfemur -183.484 195.591 -199.42
ltibia 34.5876
lfoot -27.8717 10.6203
ltoes -0.820993
